Coordinates
version=1
nRows=16
nColumns=34
inDegrees=no

Units are S.I. units (second, meters, Newtons, ...)
If the header above contains a line with 'inDegrees', this indicates whether rotational values are in degrees (yes) or radians (no).

endheader
time	pelvis_tilt	pelvis_list	pelvis_rotation	pelvis_tx	pelvis_ty	pelvis_tz	hip_flexion_r	hip_adduction_r	hip_rotation_r	knee_angle_r	ankle_angle_r	subtalar_angle_r	mtp_angle_r	hip_flexion_l	hip_adduction_l	hip_rotation_l	knee_angle_l	ankle_angle_l	subtalar_angle_l	mtp_angle_l	lumbar_extension	lumbar_bending	lumbar_rotation	arm_flex_r	arm_add_r	arm_rot_r	elbow_flex_r	pro_sup_r	arm_flex_l	arm_add_l	arm_rot_l	elbow_flex_l	pro_sup_l
2.22	-0.188676	-0.110812	0.0695221	-0.165064	1.44732	-0.614499	0.214273	0.105005	-0.248157	0.102212	-0.385814	0.0663439	-0.115704	0.237639	-0.0822919	-0.300416	0.0916874	-0.319902	0.349918	-0.115704	0.230278	0.119048	-0.130015	5.42175	-1.03632	4.82502	2.32755	1.38932	-0.901989	-0.816752	-0.777685	2.34427	1.66425
2.23	-0.194688	-0.113643	0.0733992	-0.165245	1.45524	-0.614685	0.218247	0.107207	-0.25976	0.090172	-0.377142	0.0774992	-0.115704	0.244702	-0.0845181	-0.297544	0.0895057	-0.307268	0.353319	-0.115704	0.240699	0.119766	-0.137205	5.43628	-0.965712	4.90043	2.29562	1.40941	-0.898159	-0.766774	-0.711681	2.30065	1.69342
2.24	-0.198409	-0.116652	0.077251	-0.165584	1.46222	-0.614837	0.221462	0.10896	-0.27182	0.0826925	-0.370786	0.0849151	-0.115704	0.250463	-0.0880178	-0.292999	0.0907399	-0.29689	0.352956	-0.115704	0.248284	0.120727	-0.145711	5.42349	-0.901998	4.94617	2.26003	1.4257	-0.903397	-0.718287	-0.661277	2.25847	1.71565
2.25	-0.199125	-0.119399	0.0805842	-0.166041	1.46833	-0.614896	0.222995	0.110039	-0.283186	0.0797508	-0.366886	0.0885859	-0.115704	0.253683	-0.0924286	-0.287872	0.0947603	-0.288805	0.349675	-0.115704	0.251927	0.121507	-0.15422	5.39839	-0.846467	4.97673	2.22235	1.43699	-0.914475	-0.671485	-0.622884	2.21937	1.73156
2.26	-0.196671	-0.12146	0.082959	-0.166563	1.47359	-0.614824	0.222368	0.110199	-0.292792	0.0808899	-0.36524	0.0887614	-0.115704	0.253662	-0.0972829	-0.28319	0.100708	-0.282891	0.344377	-0.115704	0.251315	0.121692	-0.161659	5.3717	-0.799205	5.00289	2.18386	1.44282	-0.928578	-0.626606	-0.592916	2.18448	1.74228
2.27	-0.191371	-0.122501	0.0840628	-0.167095	1.47798	-0.614603	0.219557	0.109232	-0.299813	0.0853734	-0.365406	0.0858321	-0.115704	0.250274	-0.1021	-0.279753	0.107674	-0.278905	0.337877	-0.115704	0.246836	0.120946	-0.167289	5.3498	-0.75948	5.03151	2.14561	1.44355	-0.943585	-0.583903	-0.568263	2.15449	1.74912
2.28	-0.183903	-0.122343	0.0837508	-0.16759	1.48148	-0.614236	0.21491	0.107025	-0.303793	0.0923211	-0.36684	0.0803079	-0.115704	0.243897	-0.106482	-0.278066	0.114847	-0.27654	0.330842	-0.115704	0.239399	0.119076	-0.17074	5.33535	-0.726128	5.06595	2.10844	1.44032	-0.958137	-0.543606	-0.546511	2.12961	1.75336
2.29	-0.175132	-0.120996	0.0820527	-0.168013	1.48406	-0.613745	0.209021	0.103602	-0.304689	0.100813	-0.369017	0.0728484	-0.115704	0.235272	-0.110178	-0.278329	0.1216	-0.275469	0.323805	-0.115704	0.230207	0.116079	-0.171987	5.3283	-0.697883	5.10694	2.07307	1.43493	-0.97154	-0.505881	-0.525988	2.10966	1.75615
2.3	-0.165957	-0.118646	0.0791526	-0.168344	1.48565	-0.613166	0.202572	0.099128	-0.302831	0.109962	-0.371509	0.0642651	-0.115704	0.225336	-0.11312	-0.280447	0.127522	-0.275385	0.317174	-0.115704	0.220535	0.112139	-0.17128	5.32694	-0.673601	5.15347	2.04008	1.42952	-0.983595	-0.470806	-0.50569	2.09418	1.75845
2.31	-0.157181	-0.115617	0.0753531	-0.168575	1.48623	-0.612543	0.196206	0.0938904	-0.298813	0.118954	-0.374018	0.0554592	-0.115704	0.21506	-0.115402	-0.284054	0.132404	-0.276004	0.311217	-0.115704	0.211537	0.107596	-0.169055	5.32884	-0.65238	5.20364	2.00993	1.42642	-0.994421	-0.438368	-0.485149	2.08258	1.76104
2.32	-0.149428	-0.1123	0.071032	-0.168713	1.48574	-0.611923	0.190426	0.0882506	-0.293379	0.127079	-0.376366	0.0473243	-0.115704	0.205308	-0.117224	-0.288539	0.136185	-0.277061	0.306025	-0.115704	0.204115	0.10286	-0.165839	5.33157	-0.633592	5.25533	1.98292	1.4278	-1.0043	-0.408478	-0.464287	2.07423	1.76448
2.33	-0.143097	-0.10908	0.0665955	-0.168772	1.48417	-0.611349	0.185542	0.0825812	-0.287331	0.133768	-0.378456	0.0406571	-0.115704	0.196747	-0.118824	-0.293126	0.138912	-0.278294	0.301519	-0.115704	0.198848	0.0983261	-0.162176	5.33318	-0.616853	5.30667	1.9592	1.4355	-1.01355	-0.380993	-0.443283	2.06858	1.76903
2.34	-0.138362	-0.106275	0.0624295	-0.168771	1.48151	-0.610856	0.18167	0.0772063	-0.281449	0.138617	-0.380234	0.0360762	-0.115704	0.189799	-0.120419	-0.296988	0.140687	-0.279432	0.297492	-0.115704	0.195987	0.0943016	-0.158567	5.33244	-0.601955	5.35624	1.93873	1.45074	-1.02247	-0.355747	-0.422461	2.06521	1.77467
2.35	-0.1352	-0.104094	0.0588529	-0.16873	1.47774	-0.610464	0.178765	0.0723572	-0.276421	0.141411	-0.381657	0.0339615	-0.115704	0.184642	-0.122162	-0.299387	0.141642	-0.280194	0.293684	-0.115704	0.195485	0.0909548	-0.15541	5.32885	-0.588787	5.40319	1.92134	1.47393	-1.03129	-0.332581	-0.402211	2.06384	1.78117
2.36	-0.133442	-0.102615	0.0560802	-0.168671	1.47289	-0.610179	0.176673	0.0681506	-0.272774	0.142126	-0.382679	0.0344208	-0.115704	0.181243	-0.124123	-0.299818	0.141923	-0.280305	0.28988	-0.115704	0.197079	0.0883064	-0.152977	5.32253	-0.577257	5.44716	1.90679	1.50457	-1.04017	-0.311375	-0.382913	2.06428	1.78816
2.37	-0.132832	-0.101792	0.0542021	-0.168611	1.46696	-0.609985	0.175189	0.0645887	-0.270819	0.140894	-0.383253	0.0372886	-0.115704	0.179416	-0.126294	-0.298123	0.141674	-0.279517	0.285999	-0.115704	0.200364	0.0862475	-0.151389	5.31407	-0.567227	5.48813	1.89477	1.54132	-1.04914	-0.29206	-0.364893	2.06636	1.79522
